<svg xmlns="http://www.w3.org/2000/svg" width="25" height="25" fill="none" viewBox="0 0 25 25"><path fill-rule="evenodd" stroke="#fff" stroke-linecap="round" stroke-linejoin="round" stroke-width="2" d="M16.964 2.08325H20.3668C21.7746 2.08325 22.9166 3.23522 22.9166 4.65635V8.08752C22.9166 9.50758 21.7746 10.6606 20.3668 10.6606H16.964C15.5552 10.6606 14.413 9.50758 14.413 8.08752V4.65635C14.413 3.23522 15.5552 2.08325 16.964 2.08325ZM4.63424 2.08325H8.03587C9.44477 2.08325 10.5868 3.23522 10.5868 4.65635V8.08752C10.5868 9.50758 9.44477 10.6606 8.03587 10.6606H4.63424C3.22534 10.6606 2.08328 9.50758 2.08328 8.08752V4.65635C2.08328 3.23522 3.22534 2.08325 4.63424 2.08325ZM4.63424 14.3392H8.03587C9.44477 14.3392 10.5868 15.4911 10.5868 16.9134V20.3435C10.5868 21.7645 9.44477 22.9166 8.03587 22.9166H4.63424C3.22534 22.9166 2.08328 21.7645 2.08328 20.3435V16.9134C2.08328 15.4911 3.22534 14.3392 4.63424 14.3392ZM16.964 14.3392H20.3668C21.7746 14.3392 22.9166 15.4911 22.9166 16.9134V20.3435C22.9166 21.7645 21.7746 22.9166 20.3668 22.9166H16.964C15.5552 22.9166 14.413 21.7645 14.413 20.3435V16.9134C14.413 15.4911 15.5552 14.3392 16.964 14.3392Z" clip-rule="evenodd"/></svg>