<svg width="28" height="28" viewBox="0 0 28 28" fill="none" xmlns="http://www.w3.org/2000/svg">
<path d="M23.3333 21C24.6167 21 25.655 19.95 25.655 18.6666L25.6667 6.99996C25.6667 5.71663 24.6167 4.66663 23.3333 4.66663H4.66667C3.38333 4.66663 2.33333 5.71663 2.33333 6.99996V18.6666C2.33333 19.95 3.38333 21 4.66667 21H1.16667C0.525 21 0 21.525 0 22.1666C0 22.8083 0.525 23.3333 1.16667 23.3333H26.8333C27.475 23.3333 28 22.8083 28 22.1666C28 21.525 27.475 21 26.8333 21H23.3333ZM5.83333 6.99996H22.1667C22.8083 6.99996 23.3333 7.52496 23.3333 8.16663V17.5C23.3333 18.1416 22.8083 18.6666 22.1667 18.6666H5.83333C5.19167 18.6666 4.66667 18.1416 4.66667 17.5V8.16663C4.66667 7.52496 5.19167 6.99996 5.83333 6.99996Z" fill="white"/>
</svg>
