<svg width="35" height="35" viewBox="0 0 35 35" fill="none" xmlns="http://www.w3.org/2000/svg">
<path d="M30.625 5.46875H4.375C2.56282 5.46875 1.09375 6.93782 1.09375 8.75V26.25C1.09375 28.0622 2.56282 29.5312 4.375 29.5312H30.625C32.4372 29.5312 33.9062 28.0622 33.9062 26.25V8.75C33.9062 6.93782 32.4372 5.46875 30.625 5.46875Z" fill="#FFD766"/>
<path d="M33.9063 8.75V26.25C33.9063 27.1202 33.5606 27.9548 32.9452 28.5702C32.3298 29.1855 31.4952 29.5312 30.625 29.5312H17.5V5.46875H30.625H30.9531H31.2156H31.4344C31.6425 5.51861 31.8444 5.592 32.0359 5.6875C32.2169 5.77243 32.3891 5.87501 32.55 5.99375L32.7797 6.17969C33.1459 6.49815 33.4368 6.89387 33.6316 7.33833C33.8264 7.78279 33.9202 8.26492 33.9063 8.75Z" fill="#F2C861"/>
<path d="M30.625 5.46876H4.37501C3.74502 5.46913 3.12846 5.65084 2.59898 5.99219C2.06949 6.33355 1.64946 6.82011 1.38907 7.39376L16.7016 18.3313C16.9355 18.4966 17.2136 18.588 17.5 18.5938C17.7907 18.5938 18.074 18.5019 18.3094 18.3313L33.6219 7.39376C33.3607 6.81842 32.939 6.33071 32.4074 5.98923C31.8758 5.64775 31.2568 5.46702 30.625 5.46876Z" fill="#F7931E"/>
<path d="M17.5 18.5938C17.7907 18.5938 18.074 18.5019 18.3094 18.3313L33.6219 7.39376C33.3607 6.81842 32.939 6.33071 32.4074 5.98923C31.8757 5.64775 31.2568 5.46702 30.625 5.46876H17.5V18.5938Z" fill="#E5811F"/>
</svg>
