<svg xmlns="http://www.w3.org/2000/svg" width="26" height="26" fill="none" viewBox="0 0 26 26"><path fill="#117EB8" d="M24.5556 0H1.44444C0.6467 0 0 0.6467 0 1.44444V24.5556C0 25.3533 0.6467 26 1.44444 26H24.5556C25.3533 26 26 25.3533 26 24.5556V1.44444C26 0.6467 25.3533 0 24.5556 0Z"/><path fill="#fff" fill-rule="evenodd" d="M4.74464 10.0563H8.21961V21.237H4.74464V10.0563ZM6.48267 4.49841C7.5938 4.49841 8.49658 5.40119 8.49658 6.51233C8.49658 7.62455 7.5938 8.52769 6.48267 8.52769C6.21489 8.53276 5.94879 8.48439 5.69992 8.38543C5.45106 8.28646 5.22441 8.13887 5.03325 7.95129C4.84209 7.76371 4.69023 7.53991 4.58657 7.29296C4.48291 7.04601 4.42952 6.78087 4.42952 6.51305C4.42952 6.24522 4.48291 5.98009 4.58657 5.73314C4.69023 5.48619 4.84209 5.26238 5.03325 5.0748C5.22441 4.88722 5.45106 4.73964 5.69992 4.64067C5.94879 4.5417 6.21489 4.49334 6.48267 4.49841ZM10.3993 10.0559H13.7323V11.5838H13.7786C14.2426 10.7048 15.3761 9.77821 17.0665 9.77821C20.5851 9.77821 21.2351 12.094 21.2351 15.1046V21.237H17.7623V15.7997C17.7623 14.5034 17.7385 12.8354 15.9568 12.8354C14.1487 12.8354 13.871 14.2477 13.871 15.7062V21.237H10.3989V10.0563L10.3993 10.0559Z" clip-rule="evenodd"/></svg>