<svg width="34" height="34" viewBox="0 0 34 34" fill="none" xmlns="http://www.w3.org/2000/svg">
<path d="M27.7043 20.9879C26.1596 20.9907 24.6243 20.7464 23.1568 20.264C22.4329 20.0161 21.3775 20.4496 21.1352 20.689C20.4793 21.3407 18.6192 23.1993 18.6192 23.1993C15.2987 21.4208 12.5818 18.6954 10.8134 15.3694C10.8134 15.3694 12.6041 13.5646 13.2458 12.9384C13.651 12.5417 13.9867 11.5982 13.753 10.8502C13.2688 9.38063 13.023 7.84299 13.0248 6.29567C13.0248 5.168 12.1068 4.25 10.9792 4.25H6.29567C5.168 4.25 4.25 5.168 4.25 6.29567C4.25 19.2298 14.7716 29.75 27.7043 29.75C28.832 29.75 29.75 28.832 29.75 27.7043V23.0336C29.75 21.9059 28.832 20.9879 27.7043 20.9879Z" fill="#68B345"/>
<path opacity="0.2" d="M27.7043 20.9879C26.1596 20.9908 24.6243 20.7464 23.1568 20.264C22.4669 20.0274 21.6977 20.1989 21.0984 20.7202L15.4998 26.3188L15.5168 26.3274L20.893 21.0744C21.5064 20.553 22.2955 20.3802 23.001 20.6182C24.4885 21.0984 26.0568 21.3407 27.6548 21.3407C28.8108 21.3407 29.75 22.2601 29.75 23.3878V23.0336C29.75 21.9059 28.832 20.9879 27.7043 20.9879Z" fill="white"/>
<path d="M18.6193 23.1993C15.2987 21.4207 12.5818 18.6954 10.8134 15.3694L7.701 18.4804C9.65139 21.6693 12.3317 24.3492 15.521 26.299L18.6193 23.1993Z" fill="url(#paint0_linear)"/>
<path opacity="0.2" d="M13.0248 6.29567C13.0248 5.168 12.1068 4.25 10.9792 4.25H6.29567C5.168 4.25 4.25 5.168 4.25 6.29567C4.25 6.38492 4.2585 6.47275 4.2585 6.56058C4.2811 6.035 4.50545 5.53837 4.88488 5.17398C5.2643 4.80959 5.7696 4.6055 6.29567 4.60417H10.9792C12.1068 4.60417 13.0248 5.52217 13.0248 6.64983" fill="white"/>
<path opacity="0.1" d="M27.8035 29.3958C22.8068 29.4011 17.9362 27.8277 13.887 24.9002C9.8378 21.9727 6.81698 17.8407 5.25583 13.0942C5.559 14.1001 5.92733 15.0464 6.358 15.9913C10.0541 24.0989 18.2282 29.75 27.7043 29.75C28.6705 29.75 29.478 29.0742 29.6905 28.1718C29.5277 28.5363 29.2629 28.8458 28.9281 29.063C28.5932 29.2802 28.2026 29.3958 27.8035 29.3958Z" fill="#010101"/>
<path d="M27.7043 20.9879C26.1596 20.9907 24.6243 20.7464 23.1568 20.264C22.4329 20.0161 21.3775 20.4496 21.1352 20.689C20.4793 21.3407 18.6192 23.1993 18.6192 23.1993C15.2987 21.4208 12.5818 18.6954 10.8134 15.3694C10.8134 15.3694 12.6041 13.5646 13.2458 12.9384C13.651 12.5417 13.9867 11.5982 13.753 10.8502C13.2688 9.38063 13.023 7.84299 13.0248 6.29567C13.0248 5.168 12.1068 4.25 10.9792 4.25H6.29567C5.168 4.25 4.25 5.168 4.25 6.29567C4.25 19.2298 14.7716 29.75 27.7043 29.75C28.832 29.75 29.75 28.832 29.75 27.7043V23.0336C29.75 21.9059 28.832 20.9879 27.7043 20.9879Z" fill="url(#paint1_linear)"/>
<defs>
<linearGradient id="paint0_linear" x1="9.43759" y1="17.5703" x2="15.6272" y2="23.7599" gradientUnits="userSpaceOnUse">
<stop stop-color="#010101" stop-opacity="0.1"/>
<stop offset="1" stop-color="#010101" stop-opacity="0"/>
</linearGradient>
<linearGradient id="paint1_linear" x1="2.24838" y1="10.1353" x2="31.7408" y2="23.8878" gradientUnits="userSpaceOnUse">
<stop stop-color="white" stop-opacity="0.2"/>
<stop offset="1" stop-color="white" stop-opacity="0"/>
</linearGradient>
</defs>
</svg>
